<?xml version="1.0" encoding="utf-8"?>
<!-- Generated by Mocodo 4.3.2 -->
<svg width="654" height="136" viewBox="0 0 654 136" xmlns="http://www.w3.org/2000/svg">
<rect x="0" y="0" width="654" height="136" fill="#f7f7f7" stroke="none" stroke-width="0"/>

<!-- Association PROJECT_TECHNOLOGY -->
<g>
	<line x1="366" y1="68" x2="216" y2="68" stroke="#e08214" stroke-width="2"/>
	<line x1="57" y1="68" x2="216" y2="68" stroke="#e08214" stroke-width="2"/>
	<g>
		<path d="M281 43 a14 14 90 0 1 14 14 V68 h-158 V57 a14 14 90 0 1 14 -14" fill="#fdb863" stroke="#fdb863" stroke-width="0"/>
		<path d="M295 68 v11 a14 14 90 0 1 -14 14 H151 a14 14 90 0 1 -14 -14 V68 H158" fill="#fee0b6" stroke="#fee0b6" stroke-width="0"/>
		<rect x="137" y="43" width="158" height="50" fill="none" rx="14" stroke="#e08214" stroke-width="2"/>
		<line x1="137" y1="68" x2="295" y2="68" stroke="#e08214" stroke-width="1"/>
		<text x="144" y="60.75" fill="#000000" font-family="Verdana" font-size="12">PROJECT&#45;TECHNOLOGY</text>
	</g>
	<text x="300" y="85" fill="#542788" font-family="Verdana" font-size="12">1,N</text>
	<text x="110" y="85" fill="#542788" font-family="Verdana" font-size="12">0,N</text>
</g>

<!-- Association USER_PROJECT -->
<g>
	<line x1="611" y1="68" x2="491" y2="68" stroke="#e08214" stroke-width="2"/>
	<line x1="366" y1="68" x2="491" y2="68" stroke="#e08214" stroke-width="2"/>
	<g>
		<path d="M531 43 a14 14 90 0 1 14 14 V68 h-108 V57 a14 14 90 0 1 14 -14" fill="#fdb863" stroke="#fdb863" stroke-width="0"/>
		<path d="M545 68 v11 a14 14 90 0 1 -14 14 H451 a14 14 90 0 1 -14 -14 V68 H108" fill="#fee0b6" stroke="#fee0b6" stroke-width="0"/>
		<rect x="437" y="43" width="108" height="50" fill="none" rx="14" stroke="#e08214" stroke-width="2"/>
		<line x1="437" y1="68" x2="545" y2="68" stroke="#e08214" stroke-width="1"/>
		<text x="445" y="60.75" fill="#000000" font-family="Verdana" font-size="12">USER&#45;PROJECT</text>
	</g>
	<text x="550" y="85" fill="#542788" font-family="Verdana" font-size="12">0,N</text>
	<text x="410" y="85" fill="#542788" font-family="Verdana" font-size="12">0,N</text>
</g>

<!-- Entity TECHNOLOGY -->
<g>
	<g>
		<rect x="9" y="26" width="96" height="25" fill="#b2abd2" stroke="none" stroke-width="0" opacity="1"/>
		<rect x="9" y="51" width="96" height="59" fill="#d8daeb" stroke="none" stroke-width="0" opacity="1"/>
		<rect x="9" y="26" width="96" height="84" fill="none" stroke="#8073ac" stroke-width="2" opacity="1"/>
		<line x1="9" y1="51" x2="105" y2="51" stroke="#8073ac" stroke-width="1"/>
	</g>
	<text x="15" y="43.75" fill="#000000" font-family="Verdana" font-size="12">TECHNOLOGY</text>
	<text x="14" y="68.8" fill="#000000" font-family="Verdana" font-size="12">ref</text>
	<line x1="14" y1="71" x2="31" y2="71" stroke="#000000" stroke-width="1"/>
	<text x="14" y="85.8" fill="#000000" font-family="Verdana" font-size="12">name</text>
	<text x="14" y="102.8" fill="#000000" font-family="Verdana" font-size="12">icone</text>
</g>

<!-- Entity PROJECT -->
<g>
	<g>
		<rect x="327" y="9" width="78" height="25" fill="#b2abd2" stroke="none" stroke-width="0" opacity="1"/>
		<rect x="327" y="34" width="78" height="93" fill="#d8daeb" stroke="none" stroke-width="0" opacity="1"/>
		<rect x="327" y="9" width="78" height="118" fill="none" stroke="#8073ac" stroke-width="2" opacity="1"/>
		<line x1="327" y1="34" x2="405" y2="34" stroke="#8073ac" stroke-width="1"/>
	</g>
	<text x="339" y="26.75" fill="#000000" font-family="Verdana" font-size="12">PROJECT</text>
	<text x="332" y="51.8" fill="#000000" font-family="Verdana" font-size="12">ref</text>
	<line x1="332" y1="54" x2="349" y2="54" stroke="#000000" stroke-width="1"/>
	<text x="332" y="68.8" fill="#000000" font-family="Verdana" font-size="12">titre</text>
	<text x="332" y="85.8" fill="#000000" font-family="Verdana" font-size="12">image</text>
	<text x="332" y="102.8" fill="#000000" font-family="Verdana" font-size="12">description</text>
	<text x="332" y="119.8" fill="#000000" font-family="Verdana" font-size="12">demo_url</text>
</g>

<!-- Entity USER -->
<g>
	<g>
		<rect x="577" y="9" width="68" height="25" fill="#b2abd2" stroke="none" stroke-width="0" opacity="1"/>
		<rect x="577" y="34" width="68" height="93" fill="#d8daeb" stroke="none" stroke-width="0" opacity="1"/>
		<rect x="577" y="9" width="68" height="118" fill="none" stroke="#8073ac" stroke-width="2" opacity="1"/>
		<line x1="577" y1="34" x2="645" y2="34" stroke="#8073ac" stroke-width="1"/>
	</g>
	<text x="594" y="26.75" fill="#000000" font-family="Verdana" font-size="12">USER</text>
	<text x="582" y="51.8" fill="#000000" font-family="Verdana" font-size="12">ref</text>
	<line x1="582" y1="54" x2="599" y2="54" stroke="#000000" stroke-width="1"/>
	<text x="582" y="68.8" fill="#000000" font-family="Verdana" font-size="12">name</text>
	<text x="582" y="85.8" fill="#000000" font-family="Verdana" font-size="12">email</text>
	<text x="582" y="102.8" fill="#000000" font-family="Verdana" font-size="12">password</text>
	<text x="582" y="119.8" fill="#000000" font-family="Verdana" font-size="12">role</text>
</g>
</svg>